<svg width="120" height="80" viewBox="0 0 120 80" fill="none" xmlns="http://www.w3.org/2000/svg">
<path d="M71.25 45.1188C68.25 45.1188 65.625 47.014 64.125 49.6685H19.875C12.375 49.6685 6.375 43.223 6.375 35.64C6.375 28.057 12.375 21.6115 19.875 21.6115H26.25C26.25 20.0949 27 18.5783 27.375 17.0617C27.75 16.6826 27.75 15.9243 28.125 15.5451C31.125 9.85788 37.125 6.06639 43.875 6.06639C49.875 6.06639 55.125 9.09958 58.5 13.6494C60.375 12.8911 62.25 12.1328 64.5 11.7536C60.375 4.54979 52.875 0 43.875 0C33.75 0 25.125 6.44554 21.375 15.5451H19.875C9 15.5451 0 24.6447 0 36.0192C0 47.3936 9 56.1141 19.875 56.1141H64.5C65.625 58.7681 68.25 60.6639 71.625 60.6639C75.7505 60.6639 79.125 57.2515 79.125 52.7017C79.125 48.1519 75.75 45.1188 71.25 45.1188ZM96 29.5732C91.5 20.4736 82.125 14.028 71.625 14.028C58.5 14.028 47.625 23.5068 45 36.0187C38.625 36.777 33 40.1893 29.625 45.1183H62.25C64.5 42.0851 67.8755 40.5685 71.625 40.5685C78.375 40.5685 83.625 46.2557 83.625 53.0804C83.625 59.9051 78 65.5923 71.625 65.5923C67.875 65.5923 64.5 63.6966 62.25 61.0425H25.875C27.375 71.6587 36.375 80 46.875 80H95.625C109.125 80 120 69.0047 120 54.9762C120 40.9476 109.125 29.9523 96 29.5732Z" fill="#008CDB"/>
</svg>
