<svg width="56" height="80" viewBox="0 0 56 80" fill="none" xmlns="http://www.w3.org/2000/svg">
<path d="M27.9659 79.7979L5.17609 73.3886L0.0973682 15.6823H55.9027L50.8187 73.3798L27.9659 79.7979Z" fill="#264DE4"/>
<path d="M46.4662 69.7057L50.8106 20.4005H28V74.892L46.4662 69.7057Z" fill="#2965F1"/>
<path d="M11.7401 41.803L12.3662 48.8804H28V41.803H11.7401Z" fill="#EBEBEB"/>
<path d="M10.4818 27.4781L11.1169 34.5556H28V27.4781H10.4818Z" fill="#EBEBEB"/>
<path d="M28 60.1839L27.9694 60.1921L20.1889 58.0638L19.6914 52.4193H12.6783L13.657 63.5319L27.9678 67.5563L28 67.5475V60.1839Z" fill="#EBEBEB"/>
<path d="M13.2309 0H21.6921V3.58471H16.7694V7.16942H21.6926V10.7539H13.2309V0Z" fill="white"/>
<path d="M23.3846 0H31.8461V3.11712H26.9231V3.7405H31.8461V10.9099H23.3848V7.63657H28.3078V7.01319H23.3844V0H23.3846Z" fill="white"/>
<path d="M33.5385 0H42V3.11712H37.077V3.7405H42V10.9099H33.5385V7.63657H38.4615V7.01319H33.5388V0H33.5385Z" fill="white"/>
<path d="M44.2153 41.803L45.4764 27.4781H27.9759V34.5556H37.8201L37.1844 41.803H27.9759V48.8805H36.5787L35.7676 58.0594L27.9757 60.19V67.5531L42.2979 63.532L42.4029 62.3362L44.0449 43.7035L44.2153 41.803Z" fill="white"/>
</svg>
