<svg width="32" height="29" viewBox="0 0 32 29" fill="none" xmlns="http://www.w3.org/2000/svg">
  <path
    d="M9.56323 25.542C8.34423 24.578 7.04223 23.662 6.15723 22.365C4.28723 20.084 2.84423 17.443 1.86023 14.662C1.26623 12.86 1.06323 10.922 0.297233 9.18297C-0.504767 7.92797 0.432232 6.54797 1.81323 6.14697C2.42823 6.02697 3.51123 5.44897 2.20423 5.86597C1.03223 6.71997 0.923233 5.08497 2.12123 4.98097C2.93923 4.87197 3.24123 4.19997 2.96023 3.60097C2.08523 3.02797 5.09523 2.39797 3.58023 1.53797C2.00223 -0.165028 5.78823 -0.493028 4.85623 1.43897C4.63223 2.92897 7.50223 1.16797 6.83523 2.88697C7.51223 3.70997 9.36623 3.07497 9.31923 4.23097C10.3092 4.29897 10.6472 5.12697 11.5692 5.18897C12.5332 5.62697 14.2672 5.96497 14.5952 7.04297C13.6422 7.79797 11.4392 5.49097 11.3352 7.57397C11.6212 10.652 11.5492 13.824 12.6742 16.756C13.2102 18.532 14.5022 19.933 15.6692 21.313C16.7842 22.672 18.2942 23.62 19.8362 24.428C21.1902 25.063 22.6492 25.485 24.1222 25.751C24.7162 25.293 25.7732 23.595 26.7052 24.313C26.7472 25.115 24.8562 25.995 26.6162 25.907C27.6472 25.594 28.3662 26.704 29.2202 25.704C30.0012 26.631 32.4802 25.11 31.9232 27.011C31.1682 27.495 30.0642 27.204 29.3082 27.87C28.0632 27.25 27.0682 28.427 25.6882 28.281C24.1538 28.5445 22.5992 28.6733 21.0422 28.666C18.4952 28.463 15.8912 28.38 13.4642 27.494C12.0992 27.093 10.7662 26.317 9.56323 25.541V25.542ZM11.7142 26.474C13.0472 27.047 14.3552 27.656 15.8182 27.844C18.1362 28.162 20.5322 28.662 22.8602 28.209C21.8082 27.73 20.7142 28.397 19.6672 27.865C18.4072 28.136 17.0582 27.797 15.7762 27.631C14.3232 26.985 12.7502 26.537 11.3852 25.693C9.68723 25.073 12.2652 26.49 12.7292 26.61C13.7922 27.214 11.5572 26.297 11.2452 26.047C10.3542 25.547 10.2402 25.651 11.1562 26.156C11.3382 26.265 11.5212 26.38 11.7132 26.474H11.7142ZM9.17723 24.677C10.4692 25.156 9.17223 23.771 8.57823 23.849C8.31823 23.396 7.57823 23.104 8.09923 22.865C7.15623 23.188 7.11523 21.625 6.67223 21.844C5.67723 21.531 6.28723 20.422 5.10423 19.74C4.99523 19.021 3.92723 18.396 3.58323 17.308C3.43223 16.756 2.38023 15.157 3.02623 16.641C3.57823 18.073 4.55223 19.297 5.35923 20.521C5.98923 21.682 6.72923 22.901 7.87523 23.625C8.26023 23.995 8.63023 24.563 9.17723 24.677V24.677ZM5.45323 20.589C5.49523 20.396 5.68723 21.011 5.45323 20.589V20.589ZM10.7242 25.25C11.0102 25.125 10.3132 25.094 10.7242 25.25V25.25ZM11.4272 25.51C11.3542 25.156 11.1042 25.703 11.4272 25.51V25.51ZM12.3072 25.875C12.7242 25.474 11.6612 25.625 12.3072 25.875V25.875ZM13.8132 26.714C14.0682 26.339 12.9952 26.573 13.8132 26.714V26.714ZM10.9222 24.698C11.5682 24.276 10.0782 24.693 10.9222 24.698V24.698ZM11.5782 25.026C11.5622 24.802 11.3442 25.125 11.5782 25.026V25.026ZM14.8702 27.083C15.4012 27.416 17.9642 27.812 16.3602 27.218C16.0942 27.275 13.3862 26.452 14.8702 27.083V27.083ZM9.64623 23.01C9.59423 22.786 8.82323 22.76 9.64623 23.01V23.01ZM11.1772 23.901C11.5782 23.625 10.3492 23.687 11.1772 23.901V23.901ZM12.4692 24.693C13.0422 24.479 11.5372 24.474 12.4692 24.693V24.693ZM9.02123 22.328C9.64123 22.807 11.5262 22.391 9.97423 22.047C9.26623 21.667 7.67223 21.412 8.75523 22.271L9.02123 22.328ZM13.3392 24.969C13.5992 24.526 12.2562 24.714 13.3392 24.969V24.969ZM12.0262 23.922C13.5472 24.354 10.7502 22.964 11.6512 23.766L11.8542 23.855L12.0262 23.922ZM14.6612 25.443C16.0982 25.459 13.3592 25.245 14.6612 25.443V25.443ZM8.46923 21.495C8.41223 21.229 8.11523 21.521 8.46923 21.495V21.495ZM17.0942 26.807C17.1302 26.323 16.6252 27.172 17.0942 26.807V26.807ZM10.9222 23C10.8332 22.745 10.4742 22.99 10.9222 23V23ZM8.60423 21.328C9.42723 21.281 7.47423 20.963 8.60423 21.328V21.328ZM5.85423 19.552C5.75523 19.156 4.95823 18.844 5.85423 19.552V19.552ZM13.0682 24.135C12.9172 23.958 12.9952 24.171 13.0682 24.135V24.135ZM17.5522 26.885C17.5422 26.625 17.3122 26.984 17.5522 26.885V26.885ZM12.6722 23.724C12.7502 23.38 11.9642 23.62 12.6722 23.724V23.724ZM9.32823 21.599C9.93723 21.536 8.34423 21.188 9.32823 21.599V21.599ZM14.9842 25.115C15.9372 24.735 14.0462 24.927 14.9842 25.115V25.115ZM12.0422 23.12C13.1462 23.261 10.7292 22.37 11.7972 23.042L12.0422 23.12ZM15.8752 25.479C16.9062 24.859 16.5682 26.922 17.6252 25.651C18.6672 24.891 16.7242 26.594 18.0102 25.786C18.9372 25.166 20.3122 26.083 21.1772 26.38C21.8022 26.349 22.4112 26.922 23.0472 26.573C24.2812 26.24 20.6412 26.083 21.5942 25.495C20.4692 25.823 19.6362 25.104 19.0842 24.38C17.8182 24.088 16.3602 23.442 15.7302 22.323C15.4702 21.906 16.1002 22.386 15.5062 21.698C14.7462 21.021 14.3652 20.25 13.8552 19.427C13.2462 19.104 13.1732 18.146 13.1102 19.396C13.1152 18.604 12.3702 18.073 12.1932 18.297C12.1882 17.537 12.9852 17.917 12.4272 17.354C12.3072 16.562 11.9112 15.739 11.7922 14.849C11.6102 14.422 11.7662 13.505 11.1622 14.474C10.9432 15.5 11.0892 13.214 11.4332 13.969C11.8812 13.198 11.2722 13.287 11.2452 13.396C11.5372 12.745 11.4332 11.823 11.1672 12.172C11.3232 11.484 11.4172 9.63597 10.9332 9.96397C11.2252 9.24497 11.4852 6.66697 10.2252 7.65097C9.70923 7.65597 8.82423 7.83897 8.40723 8.04697C9.72023 8.77097 8.27223 8.30697 7.74023 8.19297C7.67223 8.85997 7.14123 8.57297 6.48023 8.57797C7.53723 8.70797 5.96423 9.65597 5.35523 9.29197C4.56923 9.66697 6.03723 10.605 5.37123 10.896C5.45423 11.334 4.16823 10.74 4.26723 11.75C3.50123 11.427 4.16323 12.953 4.54323 12.438C5.84523 12.787 5.46023 13.589 5.49123 14.355C5.28323 14.798 4.44923 13.308 5.30923 13.376C4.63223 12.277 4.55923 12.98 3.99123 13.491C3.86123 13.527 5.43423 14.22 4.44923 14.564C5.31423 14.694 5.34023 15.455 5.51223 15.934C6.03323 16.481 5.92923 15.335 6.55423 15.991C6.15823 15.408 4.46523 14.35 5.82523 14.689C5.82023 14.106 5.58023 13.632 5.99723 13.647C6.41423 12.897 5.56523 15.496 6.49723 14.543C6.75723 14.428 6.82023 13.793 7.28923 14.6C7.96123 15.267 7.52923 15.746 6.58123 15.136C6.74823 15.714 7.85223 15.922 7.64423 16.824C7.86323 17.621 8.17023 17.324 8.44123 17.282C8.64923 18.053 8.76923 17.485 8.78023 17.115C9.74423 17.323 9.51423 17.891 9.81623 18.292C10.4772 18.589 8.86823 16.261 10.0092 17.589C11.2022 18.672 10.4572 19.12 9.37923 18.948C10.0612 18.896 10.2802 19.87 11.1292 19.833C11.9052 20.203 12.4312 21.619 11.0932 21.031C10.6292 20.614 8.98923 20.093 10.3332 20.89C11.5732 21.463 12.5522 21.807 13.7502 22.525C14.5992 23.134 14.9742 23.838 15.2972 23.973C14.5782 24.317 13.1302 23.697 14.2032 23.509C13.5362 23.389 12.7812 23.051 13.4222 23.884C13.9692 24.342 15.3542 24.29 15.6042 24.342C15.3902 24.806 15.0312 24.842 15.6142 24.878C14.9632 25.227 15.8222 25.279 15.8802 25.477L15.8752 25.479ZM14.5522 21.734C14.1562 21.317 14.0522 20.546 14.4792 21.218C14.6982 21.307 15.1822 22.484 14.5522 21.734V21.734ZM18.8702 24.474C19.1152 24.464 18.8752 24.662 18.8702 24.474V24.474ZM13.9272 20.719C13.9112 20.099 14.0682 21.203 13.9272 20.719V20.719ZM13.4952 20.146C13.0002 19.188 14.1252 20.417 13.4952 20.146V20.146ZM8.29723 16.552C8.58923 16.474 8.43823 17.052 8.29723 16.552V16.552ZM12.4382 18.797C12.6152 18.125 12.6462 19.365 12.4382 18.797V18.797ZM9.51023 16.766C9.30723 16.396 9.94223 17.115 9.51023 16.766V16.766ZM12.0212 17.568C11.5522 16.516 12.3542 16.995 12.1252 17.745L12.0212 17.568ZM7.69323 14.682C7.48523 14.338 7.13623 13.323 7.25023 13.015C7.34923 13.515 8.31823 15.182 7.72423 13.703C7.06823 12.463 8.51023 14.104 8.66223 14.417C8.73023 14.724 8.25623 14.334 8.57323 15.052C7.99023 14.229 8.22923 15.505 7.69323 14.682ZM6.35423 13.76C6.41123 12.958 6.66123 14.312 6.35423 13.76V13.76ZM6.95823 13.969C7.24423 13.36 7.44223 14.813 6.95823 13.969V13.969ZM5.51023 12.849C5.01023 12.354 4.65123 11.896 5.53123 12.542C5.87523 12.552 4.78123 11.506 5.61423 12.209C6.49423 12.37 6.04623 13.652 5.51023 12.85V12.849ZM6.27123 12.828C6.56323 12.542 6.42223 13.109 6.27123 12.828V12.828ZM6.74023 12.979C6.30223 12.156 7.27123 13.323 6.74023 12.979V12.979ZM5.80723 12.089C4.35923 10.803 7.63023 12.766 6.04123 12.329L5.80723 12.089ZM9.95823 14.5C9.32823 14.125 9.79123 11.854 10.0052 13.406C10.6142 13.208 9.96923 14.208 10.4222 14.198C10.3542 14.828 10.1512 15.057 9.95823 14.5ZM11.4902 15.406C11.5532 14.724 11.6202 15.875 11.4902 15.406V15.406ZM11.2242 15.141C11.2922 14.849 11.2292 15.485 11.2242 15.141V15.141ZM6.09423 11.667C5.16223 10.381 8.79723 12.964 6.68823 11.99C6.46923 11.933 6.20423 11.912 6.09423 11.667ZM9.04723 13.234C8.95823 12.151 9.24523 13.411 9.04723 13.234V13.234ZM11.2922 14.672C11.4642 14.057 11.3022 15.078 11.2922 14.672V14.672ZM6.23423 11.177C6.78623 11.057 8.52623 12.146 6.92723 11.49C6.75023 11.292 6.37523 11.381 6.23423 11.177ZM10.9792 13.542C11.0422 12.438 11.3122 12.881 10.9842 13.698L10.9792 13.542ZM6.64623 10.792C6.87023 10.464 6.04723 9.29697 6.76623 10.375C7.07323 10.62 7.66223 10.786 7.14123 10.891C7.95923 11.61 6.94323 11.084 6.64623 10.792ZM10.7452 13.198C10.9012 11.938 10.8862 13.932 10.7452 13.198V13.198ZM6.17723 9.62997C6.34923 9.55697 6.26623 9.85897 6.17723 9.62997V9.62997ZM7.24523 10.266C7.52123 9.68797 7.75023 10.912 7.24523 10.266V10.266ZM10.2602 11.948C10.2602 11.724 10.3172 12.266 10.2602 11.948V11.948ZM10.0892 11.557C9.67223 10.526 10.4802 12.104 10.0892 11.557V11.557ZM9.82823 10.88C9.76023 10.453 10.0732 11.416 9.82823 10.88V10.88ZM10.2502 10.198C9.96423 9.69297 10.6152 7.96897 10.6822 9.03697C10.3802 9.86997 10.5992 10.339 10.8072 9.21897C11.1982 8.33897 10.7242 10.959 10.2502 10.198ZM10.6772 7.63497C10.8022 7.47897 10.7082 7.81697 10.6772 7.63497V7.63497ZM9.96423 21.786C9.79223 21.635 9.98523 21.88 9.96423 21.786V21.786ZM11.4432 22.531C12.2612 22.745 12.2612 22.406 11.5162 22.307C11.1152 21.932 9.85523 21.536 10.9852 22.26C11.0582 22.448 11.2982 22.442 11.4382 22.531H11.4432ZM8.52123 20.594C8.97423 20.933 10.2242 21.552 9.16223 20.719C9.52123 20.308 8.48023 20.084 8.82323 19.808C7.94823 19.266 8.13023 19.318 8.75023 19.334C7.68723 18.86 8.90123 18.896 8.84423 18.652C8.43323 18.574 6.81823 17.933 7.77123 18.704C6.80223 18.214 7.53723 18.892 7.24523 18.819C6.25523 18.548 8.12523 19.574 7.08923 19.319C7.65723 19.767 8.62023 20.47 7.32923 19.793C7.15723 20.038 8.25123 20.408 8.52223 20.595L8.52123 20.594ZM10.0682 21.484C11.9482 22.088 9.14623 20.739 10.0682 21.484V21.484ZM17.9842 26.281C18.0102 25.906 17.7292 26.599 17.9842 26.281V26.281ZM18.8022 26.625C19.2342 26.203 18.8182 27.292 19.5212 26.521C19.5262 25.969 19.5002 25.641 18.7142 26.313C18.4952 26.433 18.4012 26.943 18.8032 26.626L18.8022 26.625ZM5.87523 18.505C5.74523 17.984 4.94323 17.984 5.87523 18.505V18.505ZM6.74523 19.078C6.42223 18.542 5.59423 18.594 6.74523 19.078V19.078ZM11.6932 22.063C12.1772 22.49 13.9122 22.376 12.2822 22.115C12.0372 21.756 10.7462 21.844 11.6932 22.063ZM18.4902 26.26C19.2352 25.635 17.7712 26.536 18.4902 26.26V26.26ZM20.0362 27.318C20.0412 27.12 19.7182 27.407 20.0362 27.318V27.318ZM20.0362 27.042C20.8592 26.167 19.2392 27.094 20.0362 27.042V27.042ZM3.74023 16.719C3.03723 15.719 3.30223 15.266 2.62523 14.453C2.50023 13.823 1.46923 12.406 2.09423 13.911C2.66723 14.786 2.83923 16.145 3.74023 16.718V16.719ZM19.7812 26.76C21.2972 25.786 19.1612 26.338 19.7812 26.76V26.76ZM20.9382 27.214C21.6982 26.568 20.4592 27.079 20.9382 27.214V27.214ZM5.62023 17.401C5.83923 17.078 5.06323 17.359 5.62023 17.401V17.401ZM20.6932 26.906C21.4272 26.432 20.5262 26.505 20.5632 26.948L20.6932 26.906ZM10.7342 20.625C10.7082 20.307 10.3432 20.651 10.7342 20.625V20.625ZM11.3492 20.979C11.1512 20.583 11.0472 21.042 11.3492 20.979V20.979ZM21.8752 27.229C22.8132 26.547 21.3022 27.094 21.6772 27.354L21.8752 27.229ZM21.5162 27.052C22.2822 26.411 20.7032 27.338 21.5162 27.052V27.052ZM23.3542 28.276C23.8702 27.932 22.7292 28.167 23.3542 28.276V28.276ZM6.09423 17.167C6.78223 17.323 8.84923 18.865 7.63023 17.276C7.00523 17.088 7.38023 15.562 6.73923 15.833C7.16623 16.547 7.09323 16.854 6.19723 16.401C5.06723 15.854 5.56223 16.677 5.78023 16.901C5.48323 16.969 6.18123 17.161 6.09323 17.167H6.09423ZM2.95323 14.688C3.07323 14.178 1.81223 11.881 2.35423 13.537C2.55223 13.881 2.53123 14.542 2.95323 14.688ZM8.71423 18.245C8.36023 17.948 8.69823 18.198 8.71423 18.245V18.245ZM9.58923 18.448C9.58923 17.906 8.62523 18.229 9.58923 18.448V18.448ZM17.1672 23.224C17.0212 22.854 16.5942 23.214 17.1672 23.224V23.224ZM17.5312 23.49C17.4792 23.282 17.3232 23.526 17.5312 23.49V23.49ZM20.5362 25.38C20.8222 25.166 20.1772 25.354 20.5362 25.38V25.38ZM4.52123 15.089C5.34923 14.766 3.63623 14.86 4.52123 15.089V15.089ZM16.5002 22.635C16.4902 22.099 15.9742 22.77 16.5002 22.635V22.635ZM4.19323 14.328C4.72423 14.146 3.70323 14.208 4.19323 14.328V14.328ZM5.73423 15.073C5.72423 14.896 5.57323 15.141 5.73423 15.073V15.073ZM24.5212 26.594C25.2032 26.459 26.7612 26.943 27.0112 26.412C26.1832 26.396 24.1412 25.829 24.0472 26.547L24.2292 26.578L24.5212 26.594ZM6.22423 15.198C6.23423 14.656 5.80223 15.177 6.22423 15.198V15.198ZM2.17223 12.385C1.99023 11.354 1.47423 12.229 2.17223 12.385V12.385ZM3.14123 12.63C3.15123 12.297 2.25623 12.328 3.14123 12.63V12.63ZM3.69323 12.901C3.53223 12.771 3.56823 13.062 3.69323 12.901V12.901ZM7.16123 15.125C7.32823 14.979 6.77623 15.016 7.16123 15.125V15.125ZM3.32323 12.292C3.22923 11.511 2.20323 12.172 3.32323 12.292V12.292ZM1.34423 11.005C1.31823 10.646 1.15123 11.14 1.34423 11.005V11.005ZM1.63523 10.781C1.58823 10.354 1.38523 10.833 1.63523 10.781V10.781ZM3.26623 11.755C3.95423 11.484 2.01123 11.192 3.12523 11.703L3.26623 11.755ZM25.0422 25.203C25.4852 24.802 24.4852 25.078 25.0422 25.203V25.203ZM27.6772 26.568C27.8492 26.047 27.2292 26.636 27.6772 26.568V26.568ZM3.43223 10.901C3.50523 10.396 2.88523 11 3.43223 10.901V10.901ZM1.11523 9.34897C0.990233 8.63497 1.01123 7.38497 2.19823 7.80697C0.609232 8.12497 3.29723 9.78097 2.95823 8.47397C3.62523 8.50497 4.26523 8.07797 3.91123 8.72897C5.22923 8.58297 6.14023 7.44297 7.41123 7.59897C8.40123 7.46897 9.48423 7.36997 10.5522 6.97397C11.4272 6.90597 12.2712 5.96397 11.7922 5.40597C10.5942 5.30197 9.34423 5.45297 8.02123 5.71297C6.55723 6.01997 5.22923 6.59797 3.75023 6.84797C2.30723 7.04097 4.03623 7.37897 3.62523 7.45697C2.87523 7.71697 4.52123 7.89497 3.52623 8.16497C2.91723 8.04997 2.27623 7.83697 2.53623 7.19097C1.15623 7.36797 -0.0577674 7.94597 1.03623 9.34697L1.11523 9.34897ZM4.44323 7.65597C4.76623 6.46297 6.17723 8.63497 4.97423 7.81197C4.82823 7.70797 4.59423 7.61897 4.44323 7.65597ZM4.50523 7.07797C4.96923 6.73397 4.75023 7.27097 4.50523 7.07797V7.07797ZM5.09923 7.08897C5.14123 6.54197 6.45323 7.38097 5.31323 7.28697L5.09923 7.08897ZM5.90623 6.75997C6.20323 6.41597 5.99523 7.07297 5.90623 6.75997V6.75997ZM6.11523 6.62497C6.61023 6.03097 8.91223 6.24497 7.22423 6.56797C6.77623 6.22897 6.42723 6.76597 6.11523 6.62497ZM9.12023 6.16097C9.04223 4.54097 10.6102 6.73897 9.12023 6.16097V6.16097ZM9.96923 6.15597C10.2822 5.33797 11.1772 5.82797 10.1152 5.98897C10.1362 6.07797 10.0842 6.41097 9.96923 6.15597ZM3.09423 10.484C4.02623 9.91097 2.11023 9.98897 3.09423 10.484V10.484ZM3.78123 10.677C4.10923 10.328 3.07323 10.531 3.78123 10.677V10.677ZM1.75523 9.23397C2.28623 8.82797 1.13023 9.07797 1.75523 9.23397V9.23397ZM29.2292 26.422C29.2452 25.948 28.8232 26.636 29.2292 26.422V26.422ZM26.4382 24.516C26.5162 23.969 26.0792 24.563 26.4382 24.516V24.516ZM29.9952 26.604C30.7402 26.604 32.2452 26.375 30.6302 26.375C30.3752 26.417 29.1512 26.406 29.9952 26.604ZM4.38523 10.339C4.98923 10.297 5.32823 9.67797 4.27023 9.71397C2.62923 9.54197 5.71323 10.271 4.06223 10.063C3.83823 10.209 4.37523 10.381 4.38523 10.339ZM4.91723 10.609C4.85423 10.218 4.72923 10.812 4.91723 10.609V10.609ZM5.54223 8.93197C5.80823 8.60897 5.18323 8.84297 5.54223 8.93197V8.93197ZM3.54223 5.58897C4.62023 5.22397 6.08923 4.81297 6.59423 5.76597C6.07823 5.14597 6.38623 4.53697 6.87523 5.44297C7.56323 6.36497 7.90623 5.02597 7.45823 4.71897C7.96823 5.35397 8.54723 5.65097 7.80223 4.75497C8.61523 3.78097 6.17223 4.88497 5.61423 4.87497C5.34823 4.99497 2.85423 5.50997 3.54623 5.58897H3.54223ZM4.17223 4.38497C4.78723 3.92097 6.29223 4.65597 5.32323 3.92097C5.23423 3.84297 3.20823 4.47797 4.17223 4.38497ZM6.40623 4.47397C7.12523 4.49497 6.09923 3.51597 6.95323 3.95797C6.81223 3.49997 5.95823 3.41097 5.53623 3.22897C5.30223 3.65097 6.02023 4.47897 6.40623 4.47397ZM4.56823 2.44797C4.81323 2.11497 4.13023 2.61997 4.56823 2.44797V2.44797ZM5.47923 2.66697C6.63023 2.51597 5.18223 2.17197 5.24523 2.65697L5.47923 2.66697ZM3.77623 1.33297C2.96323 0.269972 5.30223 1.51497 4.47923 0.400972C3.78123 -0.151028 3.11423 1.02597 3.77623 1.33297V1.33297ZM14.2082 6.95297C14.5832 6.29197 12.6662 6.06197 13.9582 6.71897C14.0782 6.76097 14.0472 6.99997 14.2082 6.95297Z"
    fill="white" />
</svg>