<svg width="25" height="25" viewBox="0 0 25 25" fill="none" xmlns="http://www.w3.org/2000/svg">
<path d="M12.499 0.5C5.59277 0.5 -0.000976562 6.09687 -0.000976562 13C-0.000976562 18.524 3.58027 23.2083 8.5459 24.8594C9.1709 24.9771 9.40006 24.5906 9.40006 24.2583C9.40006 23.9615 9.38965 23.175 9.38444 22.1333C5.90736 22.8875 5.17402 20.4562 5.17402 20.4562C4.60527 19.0135 3.7834 18.6281 3.7834 18.6281C2.65111 17.8531 3.8709 17.8687 3.8709 17.8687C5.12611 17.9562 5.78548 19.1562 5.78548 19.1562C6.90006 21.0677 8.71152 20.5156 9.42611 20.1958C9.53861 19.3875 9.86048 18.8365 10.2178 18.524C7.44173 18.2115 4.52402 17.1365 4.52402 12.3469C4.52402 10.9823 5.0084 9.86771 5.81048 8.99271C5.66986 8.67708 5.24798 7.40625 5.91986 5.68438C5.91986 5.68438 6.96673 5.34896 9.35736 6.96562C10.3574 6.6875 11.4199 6.55 12.4824 6.54375C13.5449 6.55 14.6074 6.6875 15.6074 6.96562C17.9824 5.34896 19.0292 5.68438 19.0292 5.68438C19.7011 7.40625 19.2792 8.67708 19.1542 8.99271C19.9511 9.86771 20.4355 10.9823 20.4355 12.3469C20.4355 17.149 17.5136 18.2062 14.7324 18.5135C15.1699 18.8885 15.5761 19.6552 15.5761 20.826C15.5761 22.499 15.5605 23.8427 15.5605 24.249C15.5605 24.5771 15.7792 24.9677 16.4199 24.8427C21.4209 23.2031 24.999 18.5156 24.999 13C24.999 6.09687 19.4021 0.5 12.499 0.5Z" fill="white"/>
</svg>
