<svg width="56" height="80" viewBox="0 0 56 80" fill="none" xmlns="http://www.w3.org/2000/svg">
<path d="M55.9027 15.6823L50.8187 73.3798L27.9659 79.7979L5.17609 73.3886L0.097374 15.6823H55.9027Z" fill="#E44D26"/>
<path d="M28 74.892L46.4662 69.7057L50.8106 20.4005H28V74.892Z" fill="#F16529"/>
<path d="M18.1169 34.5556H28V27.4781H10.4818L10.649 29.3769L12.3662 48.8805H28V41.803H18.7554L18.1169 34.5556Z" fill="#EBEBEB"/>
<path d="M19.6914 52.4193H12.6783L13.657 63.5319L27.9678 67.5563L28 67.5475V60.1839L27.9694 60.1921L20.1889 58.0638L19.6914 52.4193Z" fill="#EBEBEB"/>
<path d="M5.28934 0H8.83966V3.55346H12.0874V0H15.638V10.7608H12.0877V7.15745H8.83988V10.7608H5.28956V0H5.28934Z" fill="white"/>
<path d="M20.3066 3.56853H17.1815V0H26.9846V3.56853H23.8576V10.7608H20.3072V3.56853H20.307H20.3066Z" fill="white"/>
<path d="M28.5403 0H32.2422L34.5194 3.78105L36.7944 0H40.4979V10.7608H36.962V5.42715L34.5194 9.25318H34.4582L32.0141 5.42715V10.7608H28.5403V0Z" fill="white"/>
<path d="M42.2647 0H45.8161V7.20399H50.8089V10.7608H42.2645V0H42.2647Z" fill="white"/>
<path d="M27.9759 48.8804H36.5787L35.7676 58.0594L27.9757 60.1899V67.553L42.2979 63.532L42.4029 62.3362L44.0449 43.7035L44.2153 41.803H27.9759V48.8804Z" fill="white"/>
<path d="M27.9759 34.5383V34.5556H44.851L44.991 32.9649L45.3095 29.3769L45.4764 27.4781H27.9759V34.5385V34.5383Z" fill="white"/>
</svg>
