<svg width="25" height="26" viewBox="0 0 25 26" fill="none" xmlns="http://www.w3.org/2000/svg">
<path d="M21.298 21.8042H17.5959V16.0031C17.5959 14.6198 17.5678 12.8396 15.6667 12.8396C13.7365 12.8396 13.4417 14.3448 13.4417 15.901V21.8042H9.73965V9.875H13.2959V11.501H13.3438C13.8407 10.5635 15.049 9.57396 16.8542 9.57396C20.6053 9.57396 21.299 12.0427 21.299 15.2562V21.8042H21.298ZM5.5584 8.24271C5.27598 8.24285 4.9963 8.18729 4.73538 8.07921C4.47446 7.97113 4.23742 7.81266 4.03781 7.61286C3.83821 7.41306 3.67997 7.17586 3.57214 6.91484C3.46432 6.65381 3.40903 6.37409 3.40944 6.09167C3.40965 5.66644 3.53594 5.25082 3.77236 4.89737C4.00878 4.54392 4.34469 4.26851 4.73763 4.10597C5.13057 3.94343 5.56289 3.90106 5.97991 3.98422C6.39692 4.06738 6.77992 4.27234 7.08046 4.57317C7.38099 4.87399 7.58557 5.25719 7.66833 5.67429C7.75109 6.09139 7.7083 6.52366 7.54538 6.91644C7.38246 7.30922 7.10673 7.64487 6.75305 7.88095C6.39937 8.11702 5.98363 8.24291 5.5584 8.24271ZM7.41465 21.8042H3.70215V9.875H7.41465V21.8042ZM23.1501 0.5H1.84382C0.824023 0.5 -0.000976562 1.30625 -0.000976562 2.30104V23.699C-0.000976562 24.6948 0.824023 25.5 1.84382 25.5H23.1469C24.1657 25.5 24.999 24.6948 24.999 23.699V2.30104C24.999 1.30625 24.1657 0.5 23.1469 0.5H23.1501Z" fill="white"/>
</svg>
