<svg width="132" height="80" viewBox="0 0 132 80" fill="none" xmlns="http://www.w3.org/2000/svg">
<path d="M31.1463 20.8651H56.0428V22.8532H33.4285V37.8147H54.6944V39.8025H33.4285V56.2289H56.3021V58.2167H31.1463V20.8651ZM58.2734 20.8651H60.9185L72.6405 37.2915L84.6218 20.8649L100.918 0L74.1446 39.018L87.9414 58.2167H85.1923L72.6405 40.7442L60.0365 58.2167H57.3396L71.24 39.0177L58.2731 20.8651H58.2734ZM88.9268 22.8532V20.8649H117.299V22.8529H104.228V58.2165H101.946V22.8532H88.9268ZM0 20.8649H2.8527L42.1897 80L25.9339 58.2165L2.3858 23.69L2.28216 58.217H0V20.8649ZM117.069 55.6286C116.602 55.6286 116.253 55.266 116.253 54.7967C116.253 54.3279 116.602 53.9648 117.069 53.9648C117.54 53.9648 117.885 54.3276 117.885 54.7967C117.885 55.2657 117.54 55.6286 117.069 55.6286ZM119.311 53.44H120.532C120.549 54.1044 121.032 54.5511 121.742 54.5511C122.536 54.5511 122.986 54.071 122.986 53.172V47.4766H124.229V53.1774C124.229 54.7967 123.297 55.7293 121.753 55.7293C120.304 55.7293 119.311 54.8246 119.311 53.4398V53.44ZM125.855 53.3675H127.088C127.193 54.1323 127.937 54.618 129.008 54.618C130.007 54.618 130.74 54.0987 130.74 53.3841C130.74 52.77 130.274 52.4015 129.214 52.1502L128.181 51.899C126.732 51.5582 126.072 50.8547 126.072 49.6711C126.072 48.2363 127.237 47.2813 128.986 47.2813C130.612 47.2813 131.8 48.236 131.872 49.5929H130.662C130.546 48.8503 129.902 48.3867 128.969 48.3867C127.987 48.3867 127.332 48.8615 127.332 49.5872C127.332 50.1622 127.754 50.4919 128.797 50.7374L129.68 50.9552C131.323 51.3406 132 52.0106 132 53.2222C132 54.7633 130.812 55.7293 128.914 55.7293C127.138 55.7293 125.944 54.8078 125.855 53.3673V53.3675Z" fill="white"/>
</svg>
