<svg width="90" height="80" viewBox="0 0 90 80" fill="none" xmlns="http://www.w3.org/2000/svg">
<path d="M73.9979 25.9296C73.0401 25.6013 72.0742 25.2972 71.1011 25.0175C71.2645 24.3501 71.415 23.6908 71.5486 23.0432C73.7416 12.4074 72.308 3.83895 67.411 1.01782C62.7159 -1.6867 55.0375 1.13338 47.2827 7.87606C46.5184 8.54177 45.7711 9.22667 45.0415 9.93009C44.553 9.46234 44.056 9.00366 43.5505 8.5543C35.4231 1.34482 27.2767 -1.69372 22.385 1.13549C17.6941 3.84844 16.3051 11.9033 18.2795 21.9831C18.4759 22.9814 18.6977 23.9746 18.9446 24.9616C17.7915 25.289 16.6788 25.6374 15.6139 26.0083C6.08519 29.3275 0 34.5289 0 39.9243C0 45.4966 6.53273 51.0859 16.4573 54.475C17.2619 54.7486 18.0733 55.0021 18.8905 55.2354C18.6251 56.2985 18.3894 57.3687 18.1839 58.445C16.3016 68.3498 17.7715 76.2144 22.4497 78.9101C27.2816 81.694 35.3914 78.8328 43.2879 71.9363C43.9282 71.3756 44.5544 70.7991 45.1659 70.2072C45.9561 70.9689 46.7673 71.7084 47.5988 72.4249C55.248 79.0007 62.8024 81.6561 67.4761 78.953C72.3034 76.161 73.8724 67.7123 71.8355 57.4334C71.675 56.6281 71.4951 55.8268 71.2958 55.0303C71.8653 54.8617 72.4243 54.6882 72.9693 54.5076C83.2869 51.0925 90 45.5711 90 39.9243C90 34.5093 83.7183 29.2727 73.9979 25.9296ZM71.7602 50.8618C71.268 51.0244 70.7632 51.1814 70.2485 51.3342C69.1095 47.7316 67.5724 43.901 65.6912 39.9429C67.4863 36.0793 68.9643 32.2975 70.0713 28.7184C70.9921 28.9847 71.8854 29.2653 72.7467 29.5614C81.0752 32.4261 86.1553 36.6609 86.1553 39.9243C86.1553 43.4001 80.6688 47.9124 71.7602 50.8618ZM68.0639 58.1794C68.9646 62.7244 69.0929 66.8339 68.4963 70.0467C67.9605 72.9335 66.8827 74.8579 65.5495 75.6289C62.7135 77.2691 56.648 75.1371 50.1064 69.5131C49.3331 68.847 48.5785 68.1594 47.8434 67.4514C50.3796 64.6805 52.914 61.4593 55.3876 57.8816C59.7386 57.4959 63.849 56.8651 67.5766 56.0042C67.7602 56.7443 67.9233 57.4699 68.0639 58.1794ZM30.683 75.3454C27.912 76.3229 25.7048 76.351 24.3707 75.5825C21.5318 73.9468 20.3516 67.6319 21.9614 59.1615C22.1528 58.1606 22.3719 57.1651 22.6185 56.1763C26.305 56.9912 30.3855 57.5771 34.7467 57.9304C37.2371 61.4312 39.8447 64.6489 42.4726 67.4665C41.9141 68.0064 41.3424 68.5325 40.758 69.0442C37.266 72.0937 33.7669 74.2573 30.683 75.3454ZM17.7012 50.8404C13.3126 49.3416 9.68836 47.394 7.20422 45.2687C4.9718 43.359 3.84504 41.4627 3.84504 39.9243C3.84504 36.6501 8.7307 32.4739 16.8796 29.6355C17.8685 29.2913 18.9035 28.9664 19.9775 28.6615C21.1039 32.3214 22.5812 36.1481 24.364 40.0177C22.558 43.9445 21.0596 47.8324 19.9223 51.5355C19.1764 51.322 18.4358 51.0902 17.7012 50.8404ZM22.0528 21.2452C20.3614 12.6093 21.4847 6.09494 24.3116 4.45994C27.3224 2.71851 33.9803 5.2014 40.9978 11.4267C41.4554 11.8336 41.9056 12.2487 42.3482 12.6718C39.7332 15.4772 37.1496 18.671 34.6813 22.151C30.4485 22.543 26.3967 23.1724 22.6716 24.0157C22.4421 23.0977 22.2357 22.174 22.0528 21.2455V21.2452ZM60.8748 30.8227C59.9949 29.3043 59.0824 27.805 58.1379 26.3258C61.0095 26.6886 63.7608 27.1702 66.3444 27.7589C65.5689 30.2428 64.6021 32.8395 63.4641 35.5019C62.6322 33.9251 61.769 32.365 60.8748 30.8227ZM45.0432 15.4171C46.8165 17.3366 48.5926 19.4795 50.3395 21.8047C46.7958 21.6375 43.2461 21.6368 39.7023 21.8026C41.451 19.4988 43.2422 17.3587 45.0432 15.4171ZM29.1101 30.849C28.2271 32.379 27.3799 33.9293 26.5693 35.4987C25.45 32.8458 24.492 30.2372 23.7097 27.7181C26.2775 27.1442 29.0159 26.6749 31.8691 26.3188C30.9141 27.807 29.9942 29.3173 29.1101 30.8487V30.849ZM31.9511 53.803C29.0032 53.4743 26.2238 53.0293 23.6566 52.4708C24.4512 49.9068 25.4303 47.2426 26.5739 44.5329C27.3877 46.1034 28.2384 47.6547 29.1252 49.1853C30.0371 50.7589 30.9814 52.3001 31.9511 53.803ZM45.1494 64.7019C43.3269 62.7378 41.5093 60.5647 39.7343 58.2276C41.4577 58.295 43.2144 58.3294 45 58.3294C46.8345 58.3294 48.6478 58.2883 50.4327 58.2089C48.6802 60.5882 46.9107 62.7645 45.1494 64.7019ZM63.5003 44.3945C64.7033 47.1341 65.7172 49.7842 66.5223 52.3043C63.913 52.8993 61.0956 53.3784 58.127 53.7342C59.0782 52.2276 59.9994 50.7022 60.8899 49.159C61.7953 47.5904 62.6656 46.0018 63.5003 44.3945ZM57.5596 47.2398C56.1963 49.6059 54.7563 51.927 53.242 54.1996C50.499 54.3937 47.7499 54.4901 45 54.4887C42.1991 54.4887 39.4748 54.4015 36.8515 54.2315C35.2977 51.9642 33.8302 49.639 32.4524 47.2609H32.4527C31.0814 44.8954 29.8004 42.4786 28.6126 40.0159C29.7974 37.5527 31.0744 35.1348 32.4411 32.7675L32.4408 32.7678C33.8069 30.3999 35.2626 28.0846 36.8047 25.8271C39.4812 25.6247 42.2258 25.5194 44.9996 25.5194H45C47.7865 25.5194 50.5346 25.6258 53.2104 25.8295C54.7369 28.0837 56.1833 30.391 57.5469 32.7471C58.9182 35.1092 60.2121 37.5153 61.4268 39.9615C60.2246 42.4327 58.9347 44.8604 57.5596 47.2398ZM65.4908 4.34544C68.5044 6.08195 69.6765 13.0845 67.783 22.2676C67.6621 22.8535 67.5264 23.4502 67.3787 24.0554C63.6444 23.1942 59.5898 22.5539 55.3447 22.1559C52.8718 18.6376 50.3093 15.4389 47.7369 12.6697C48.4111 12.0205 49.1013 11.3881 49.8069 10.7731C56.4514 4.99628 62.6614 2.71535 65.4908 4.34544ZM45 31.895C49.4385 31.895 53.0367 35.4899 53.0367 39.9243C53.0367 44.3586 49.4385 47.9535 45 47.9535C40.5615 47.9535 36.9633 44.3586 36.9633 39.9243C36.9633 35.4899 40.5615 31.895 45 31.895Z" fill="#00D8FF"/>
</svg>
