<svg width="25" height="21" viewBox="0 0 25 21" fill="none" xmlns="http://www.w3.org/2000/svg">
<path d="M24.9511 2.92032C24.0152 3.33241 23.0236 3.60442 22.0084 3.72761C23.0773 3.08516 23.8776 2.07766 24.2615 0.891151C23.2709 1.46928 22.173 1.89011 21.0042 2.12448C20.2331 1.29993 19.2114 0.753048 18.0976 0.568757C16.9838 0.384465 15.8404 0.573079 14.8448 1.10531C13.8492 1.63754 13.0572 2.4836 12.5918 3.51211C12.1264 4.54063 12.0136 5.69404 12.2709 6.79323C8.01048 6.59219 4.23444 4.54636 1.70736 1.45365C1.24777 2.23471 1.00805 3.12555 1.01361 4.03178C1.01361 5.81303 1.91986 7.37865 3.29277 8.29844C2.47908 8.27254 1.68337 8.05254 0.97194 7.65678V7.72032C0.971479 8.90406 1.38055 10.0515 2.12976 10.968C2.87897 11.8845 3.92216 12.5135 5.08236 12.7484C4.33058 12.9499 3.5432 12.9801 2.77819 12.837C3.10762 13.8557 3.74676 14.7461 4.60647 15.3842C5.46618 16.0222 6.5036 16.3761 7.57402 16.3964C5.76099 17.8191 3.52242 18.5914 1.21777 18.5891C0.811523 18.5891 0.406315 18.5651 -0.000976562 18.5193C2.34872 20.0238 5.08081 20.8224 7.8709 20.8203C17.3021 20.8203 22.4532 13.012 22.4532 6.25157C22.4532 6.03386 22.4532 5.81407 22.4376 5.59532C23.4438 4.8712 24.3117 3.9722 25.0001 2.94115L24.9511 2.92032Z" fill="white"/>
</svg>
