<svg width="80" height="80" viewBox="0 0 80 80" fill="none" xmlns="http://www.w3.org/2000/svg">
<mask id="mask0" mask-type="alpha" maskUnits="userSpaceOnUse" x="0" y="0" width="80" height="80">
<path d="M56.5088 79.5612C57.1429 79.8104 57.8211 79.9254 58.5012 79.8991C59.1813 79.8727 59.8487 79.7056 60.462 79.4081L76.8685 71.4516C77.7135 71.0415 78.4265 70.3994 78.9254 69.5991C79.4243 68.7987 79.6889 67.8727 79.6888 66.9275V12.976C79.6889 12.0308 79.4243 11.1048 78.9254 10.3045C78.4264 9.50426 77.7135 8.86219 76.8685 8.4522L60.4623 0.495345C59.5352 0.0457397 58.4924 -0.102296 57.4782 0.0717278C56.464 0.245752 55.5285 0.733228 54.8013 1.46668L23.3929 30.347L9.71165 19.8802C9.09451 19.4081 8.33286 19.1686 7.55884 19.2033C6.78481 19.238 6.04726 19.5447 5.47415 20.0702L1.08633 24.0931C-0.360541 25.4194 -0.362104 27.7136 1.08258 29.0421L12.9473 39.9517L1.08258 50.861C-0.362104 52.1898 -0.360541 54.4837 1.08633 55.8103L5.47415 59.833C6.04722 60.3585 6.78475 60.6653 7.55878 60.7C8.33281 60.7348 9.09448 60.4953 9.71165 60.0232L23.3929 49.5561L54.8013 78.4365C55.2869 78.9267 55.8684 79.3097 56.5088 79.5612ZM59.7788 21.719L35.947 39.9517L59.7788 58.1842V21.719Z" fill="white"/>
</mask>
<g mask="url(#mask0)">
<path d="M76.9172 8.46465L60.4979 0.496779C59.5706 0.046811 58.5274 -0.10154 57.5128 0.0722547C56.4982 0.24605 55.5622 0.733397 54.8344 1.46686L1.0832 50.8612C-0.362424 52.19 -0.360549 54.4839 1.08695 55.8105L5.47757 59.8332C6.05116 60.3588 6.78916 60.6656 7.56363 60.7003C8.33811 60.7351 9.10023 60.4956 9.71789 60.0234L74.4466 10.5317C76.6182 8.87158 79.7373 10.4325 79.7373 13.1796V12.9875C79.7372 12.0425 79.4726 11.1167 78.9737 10.3166C78.4748 9.51653 77.762 8.87459 76.9172 8.46465Z" fill="#0065A9"/>
<path d="M76.9172 71.4381L60.4978 79.406C59.5705 79.8558 58.5273 80.0042 57.5127 79.8304C56.4981 79.6566 55.5622 79.1693 54.8344 78.4359L1.08311 29.0416C-0.362516 27.7131 -0.360641 25.4189 1.08686 24.0926L5.47748 20.0696C6.05111 19.544 6.78912 19.2373 7.5636 19.2026C8.33807 19.1679 9.10018 19.4074 9.7178 19.8797L74.4465 69.371C76.6181 71.0312 79.7372 69.4702 79.7372 66.7228V66.9153C79.7371 67.8602 79.4724 68.786 78.9736 69.5861C78.4747 70.3862 77.7619 71.0281 76.9172 71.4381Z" fill="#007ACC"/>
<path d="M60.4463 79.4122C59.5187 79.8619 58.4755 80.01 57.4608 79.836C56.4461 79.6621 55.5101 79.1747 54.7822 78.4412C56.62 80.2932 59.7628 78.9814 59.7628 76.3615V3.55049C59.7628 0.930643 56.62 -0.381168 54.7822 1.47112C55.51 0.737596 56.446 0.250125 57.4607 0.0761126C58.4754 -0.0978993 59.5187 0.0501464 60.4463 0.499777L76.8628 8.45663C77.7081 8.86633 78.4214 9.5083 78.9207 10.3086C79.4199 11.1089 79.6847 12.0351 79.6847 12.9804V66.9322C79.6847 68.8614 78.5878 70.6201 76.8628 71.456L60.4463 79.4125V79.4122Z" fill="#1F9CF0"/>
<path d="M56.5088 79.5607C57.1429 79.8099 57.8211 79.9249 58.5012 79.8985C59.1813 79.8722 59.8487 79.7051 60.462 79.4076L76.8682 71.4508C77.7132 71.0409 78.4263 70.3988 78.9253 69.5985C79.4243 68.7982 79.6889 67.8722 79.6888 66.927V12.9755C79.6889 12.0304 79.4243 11.1044 78.9254 10.3041C78.4264 9.5038 77.7135 8.86173 76.8685 8.45174L60.4616 0.494571C59.5346 0.0450383 58.4919 -0.102958 57.4777 0.071064C56.4636 0.245086 55.5282 0.732521 54.801 1.46591L23.3929 30.3465L9.71165 19.8798C9.09451 19.4076 8.33286 19.1681 7.55884 19.2028C6.78481 19.2375 6.04726 19.5442 5.47415 20.0697L1.08633 24.0927C-0.360541 25.419 -0.362104 27.7132 1.08258 29.0417L12.9473 39.9513L1.08258 50.8605C-0.362104 52.1894 -0.360541 54.4832 1.08633 55.8098L5.47415 59.8325C6.04722 60.3581 6.78475 60.6648 7.55878 60.6996C8.33281 60.7343 9.09448 60.4949 9.71165 60.0228L23.3929 49.5557L54.801 78.436C55.2867 78.9262 55.8683 79.3092 56.5088 79.5607ZM59.7788 21.7182L35.947 39.9513L59.7788 58.1837V21.7185V21.7182Z" fill="url(#paint0_linear)" fill-opacity="0.25"/>
</g>
<defs>
<linearGradient id="paint0_linear" x1="39.8445" y1="0.00012207" x2="39.8445" y2="79.9022" gradientUnits="userSpaceOnUse">
<stop stop-color="white"/>
<stop offset="1" stop-color="white" stop-opacity="0"/>
</linearGradient>
</defs>
</svg>
